<mxfile host="65bd71144e">
    <diagram id="9W0aQho4zFo7D8Azc_1M" name="Sincronizacion de Inventario">
        <mxGraphModel dx="995" dy="477" grid="1" gridSize="10" guides="0" tooltips="1" connect="1" arrows="1" fold="1" page="1" pageScale="1" pageWidth="827" pageHeight="1169" math="0" shadow="0">
            <root>
                <mxCell id="0"/>
                <mxCell id="1" parent="0"/>
                <mxCell id="IDtyQV8B6ksGOKyQBEoF-31" style="edgeStyle=none;html=1;entryX=0;entryY=0.5;entryDx=0;entryDy=0;" edge="1" parent="1" source="IDtyQV8B6ksGOKyQBEoF-4" target="IDtyQV8B6ksGOKyQBEoF-16">
                    <mxGeometry relative="1" as="geometry">
                        <mxPoint x="657" y="235" as="targetPoint"/>
                    </mxGeometry>
                </mxCell>
                <mxCell id="IDtyQV8B6ksGOKyQBEoF-4" value="" style="rounded=1;whiteSpace=wrap;html=1;" vertex="1" parent="1">
                    <mxGeometry x="358" y="125" width="180" height="229" as="geometry"/>
                </mxCell>
                <mxCell id="IDtyQV8B6ksGOKyQBEoF-8" value="" style="rounded=1;whiteSpace=wrap;html=1;" vertex="1" parent="1">
                    <mxGeometry x="378" y="205" width="143" height="90" as="geometry"/>
                </mxCell>
                <mxCell id="IDtyQV8B6ksGOKyQBEoF-1" value="Keys VTEX" style="rounded=1;whiteSpace=wrap;html=1;" vertex="1" parent="1">
                    <mxGeometry x="390" y="217" width="120" height="30" as="geometry"/>
                </mxCell>
                <mxCell id="IDtyQV8B6ksGOKyQBEoF-2" value="Vista inventario" style="rounded=1;whiteSpace=wrap;html=1;" vertex="1" parent="1">
                    <mxGeometry x="378" y="305" width="143" height="30" as="geometry"/>
                </mxCell>
                <mxCell id="IDtyQV8B6ksGOKyQBEoF-3" value="Maestra productos" style="rounded=1;whiteSpace=wrap;html=1;" vertex="1" parent="1">
                    <mxGeometry x="390" y="255" width="120" height="30" as="geometry"/>
                </mxCell>
                <mxCell id="IDtyQV8B6ksGOKyQBEoF-9" value="G.O.E" style="shape=cylinder3;whiteSpace=wrap;html=1;boundedLbl=1;backgroundOutline=1;size=15;" vertex="1" parent="1">
                    <mxGeometry x="270" y="190" width="60" height="70" as="geometry"/>
                </mxCell>
                <mxCell id="IDtyQV8B6ksGOKyQBEoF-10" value="FENIX" style="shape=cylinder3;whiteSpace=wrap;html=1;boundedLbl=1;backgroundOutline=1;size=15;" vertex="1" parent="1">
                    <mxGeometry x="270" y="290" width="60" height="70" as="geometry"/>
                </mxCell>
                <mxCell id="IDtyQV8B6ksGOKyQBEoF-11" value="" style="endArrow=classic;startArrow=classic;html=1;exitX=1;exitY=0;exitDx=0;exitDy=45;exitPerimeter=0;entryX=0;entryY=0.5;entryDx=0;entryDy=0;" edge="1" parent="1" source="IDtyQV8B6ksGOKyQBEoF-9" target="IDtyQV8B6ksGOKyQBEoF-8">
                    <mxGeometry width="50" height="50" relative="1" as="geometry">
                        <mxPoint x="277" y="225" as="sourcePoint"/>
                        <mxPoint x="327" y="175" as="targetPoint"/>
                    </mxGeometry>
                </mxCell>
                <mxCell id="IDtyQV8B6ksGOKyQBEoF-12" value="" style="endArrow=classic;startArrow=classic;html=1;exitX=1;exitY=0.5;exitDx=0;exitDy=0;exitPerimeter=0;entryX=0;entryY=0.5;entryDx=0;entryDy=0;" edge="1" parent="1" source="IDtyQV8B6ksGOKyQBEoF-10" target="IDtyQV8B6ksGOKyQBEoF-2">
                    <mxGeometry width="50" height="50" relative="1" as="geometry">
                        <mxPoint x="237" y="260" as="sourcePoint"/>
                        <mxPoint x="388" y="260" as="targetPoint"/>
                    </mxGeometry>
                </mxCell>
                <mxCell id="IDtyQV8B6ksGOKyQBEoF-15" value="Se consulta informacion necesari para reportar stock" style="text;html=1;strokeColor=none;fillColor=none;align=center;verticalAlign=middle;whiteSpace=wrap;rounded=0;" vertex="1" parent="1">
                    <mxGeometry x="388" y="145" width="120" height="30" as="geometry"/>
                </mxCell>
                <mxCell id="IDtyQV8B6ksGOKyQBEoF-29" value="" style="group" vertex="1" connectable="0" parent="1">
                    <mxGeometry x="587" y="100" width="180" height="280" as="geometry"/>
                </mxCell>
                <mxCell id="IDtyQV8B6ksGOKyQBEoF-16" value="" style="rounded=1;whiteSpace=wrap;html=1;" vertex="1" parent="IDtyQV8B6ksGOKyQBEoF-29">
                    <mxGeometry width="180" height="280" as="geometry"/>
                </mxCell>
                <mxCell id="IDtyQV8B6ksGOKyQBEoF-18" value="Keys VTEX" style="rounded=1;whiteSpace=wrap;html=1;" vertex="1" parent="IDtyQV8B6ksGOKyQBEoF-29">
                    <mxGeometry x="32" y="220" width="120" height="30" as="geometry"/>
                </mxCell>
                <mxCell id="IDtyQV8B6ksGOKyQBEoF-19" value="Vista inventario" style="rounded=1;whiteSpace=wrap;html=1;" vertex="1" parent="IDtyQV8B6ksGOKyQBEoF-29">
                    <mxGeometry x="32" y="150" width="118" height="30" as="geometry"/>
                </mxCell>
                <mxCell id="IDtyQV8B6ksGOKyQBEoF-30" value="" style="edgeStyle=none;html=1;" edge="1" parent="IDtyQV8B6ksGOKyQBEoF-29" source="IDtyQV8B6ksGOKyQBEoF-20" target="IDtyQV8B6ksGOKyQBEoF-19">
                    <mxGeometry relative="1" as="geometry"/>
                </mxCell>
                <mxCell id="IDtyQV8B6ksGOKyQBEoF-20" value="Maestra productos" style="rounded=1;whiteSpace=wrap;html=1;" vertex="1" parent="IDtyQV8B6ksGOKyQBEoF-29">
                    <mxGeometry x="30" y="80" width="120" height="29" as="geometry"/>
                </mxCell>
                <mxCell id="IDtyQV8B6ksGOKyQBEoF-21" value="Se cruza informacion para generar objeto con&amp;nbsp;" style="text;html=1;strokeColor=none;fillColor=none;align=center;verticalAlign=middle;whiteSpace=wrap;rounded=0;" vertex="1" parent="IDtyQV8B6ksGOKyQBEoF-29">
                    <mxGeometry x="32" y="30" width="120" height="30" as="geometry"/>
                </mxCell>
                <mxCell id="IDtyQV8B6ksGOKyQBEoF-23" value="" style="endArrow=classic;html=1;exitX=0.5;exitY=1;exitDx=0;exitDy=0;entryX=0.5;entryY=0;entryDx=0;entryDy=0;" edge="1" parent="IDtyQV8B6ksGOKyQBEoF-29" source="IDtyQV8B6ksGOKyQBEoF-19" target="IDtyQV8B6ksGOKyQBEoF-18">
                    <mxGeometry relative="1" as="geometry">
                        <mxPoint x="-170" y="110" as="sourcePoint"/>
                        <mxPoint x="210" y="170" as="targetPoint"/>
                    </mxGeometry>
                </mxCell>
                <mxCell id="IDtyQV8B6ksGOKyQBEoF-24" value="Cruce por sucursal" style="edgeLabel;resizable=0;html=1;align=center;verticalAlign=middle;" connectable="0" vertex="1" parent="IDtyQV8B6ksGOKyQBEoF-23">
                    <mxGeometry relative="1" as="geometry"/>
                </mxCell>
                <mxCell id="IDtyQV8B6ksGOKyQBEoF-25" value="" style="endArrow=classic;html=1;entryX=0.5;entryY=0;entryDx=0;entryDy=0;exitX=0.5;exitY=1;exitDx=0;exitDy=0;" edge="1" parent="IDtyQV8B6ksGOKyQBEoF-29" source="IDtyQV8B6ksGOKyQBEoF-20" target="IDtyQV8B6ksGOKyQBEoF-19">
                    <mxGeometry relative="1" as="geometry">
                        <mxPoint x="240" y="120" as="sourcePoint"/>
                        <mxPoint x="101" y="189" as="targetPoint"/>
                    </mxGeometry>
                </mxCell>
                <mxCell id="IDtyQV8B6ksGOKyQBEoF-26" value="Cuice por EAN" style="edgeLabel;resizable=0;html=1;align=center;verticalAlign=middle;" connectable="0" vertex="1" parent="IDtyQV8B6ksGOKyQBEoF-25">
                    <mxGeometry relative="1" as="geometry"/>
                </mxCell>
                <mxCell id="IDtyQV8B6ksGOKyQBEoF-27" value="" style="shape=image;html=1;verticalLabelPosition=bottom;verticalAlign=top;imageAspect=1;aspect=fixed;image=img/clipart/Gear_128x128.png" vertex="1" parent="IDtyQV8B6ksGOKyQBEoF-29">
                    <mxGeometry x="130.10000000000002" y="119" width="17.9" height="21" as="geometry"/>
                </mxCell>
                <mxCell id="IDtyQV8B6ksGOKyQBEoF-28" value="" style="shape=image;html=1;verticalLabelPosition=bottom;verticalAlign=top;imageAspect=1;aspect=fixed;image=img/clipart/Gear_128x128.png" vertex="1" parent="IDtyQV8B6ksGOKyQBEoF-29">
                    <mxGeometry x="141" y="189" width="17.9" height="21" as="geometry"/>
                </mxCell>
                <mxCell id="IDtyQV8B6ksGOKyQBEoF-33" value="Productos estan en la maestra de producto sdel gestor" style="rhombus;whiteSpace=wrap;html=1;" vertex="1" parent="1">
                    <mxGeometry x="807" y="201" width="160" height="78" as="geometry"/>
                </mxCell>
                <mxCell id="IDtyQV8B6ksGOKyQBEoF-34" style="edgeStyle=none;html=1;entryX=0;entryY=0.5;entryDx=0;entryDy=0;" edge="1" parent="1" source="IDtyQV8B6ksGOKyQBEoF-16" target="IDtyQV8B6ksGOKyQBEoF-33">
                    <mxGeometry relative="1" as="geometry">
                        <mxPoint x="877" y="305" as="targetPoint"/>
                    </mxGeometry>
                </mxCell>
                <mxCell id="IDtyQV8B6ksGOKyQBEoF-44" style="edgeStyle=none;html=1;entryX=0.5;entryY=0;entryDx=0;entryDy=0;exitX=0.5;exitY=1;exitDx=0;exitDy=0;" edge="1" parent="1" source="IDtyQV8B6ksGOKyQBEoF-35" target="IDtyQV8B6ksGOKyQBEoF-43">
                    <mxGeometry relative="1" as="geometry"/>
                </mxCell>
                <mxCell id="IDtyQV8B6ksGOKyQBEoF-35" value="El objeto con los eanes que si estan en la maestra se divide en 40 objetos mas pequeÃ±os" style="rounded=1;whiteSpace=wrap;html=1;" vertex="1" parent="1">
                    <mxGeometry x="1010" y="200" width="140" height="85" as="geometry"/>
                </mxCell>
                <mxCell id="IDtyQV8B6ksGOKyQBEoF-66" style="edgeStyle=none;html=1;entryX=0.5;entryY=0;entryDx=0;entryDy=0;" edge="1" parent="1" source="IDtyQV8B6ksGOKyQBEoF-37" target="IDtyQV8B6ksGOKyQBEoF-45">
                    <mxGeometry relative="1" as="geometry"/>
                </mxCell>
                <mxCell id="IDtyQV8B6ksGOKyQBEoF-37" value="Se lanza subproceso para buscar en VTEX el sku de cada ean" style="rounded=1;whiteSpace=wrap;html=1;" vertex="1" parent="1">
                    <mxGeometry x="827" y="325" width="120" height="60" as="geometry"/>
                </mxCell>
                <mxCell id="IDtyQV8B6ksGOKyQBEoF-39" value="" style="endArrow=classic;html=1;exitX=0.5;exitY=1;exitDx=0;exitDy=0;entryX=0.5;entryY=0;entryDx=0;entryDy=0;" edge="1" parent="1" source="IDtyQV8B6ksGOKyQBEoF-33" target="IDtyQV8B6ksGOKyQBEoF-37">
                    <mxGeometry relative="1" as="geometry">
                        <mxPoint x="1027" y="315" as="sourcePoint"/>
                        <mxPoint x="1057" y="175" as="targetPoint"/>
                    </mxGeometry>
                </mxCell>
                <mxCell id="IDtyQV8B6ksGOKyQBEoF-40" value="NO" style="edgeLabel;resizable=0;html=1;align=center;verticalAlign=middle;" connectable="0" vertex="1" parent="IDtyQV8B6ksGOKyQBEoF-39">
                    <mxGeometry relative="1" as="geometry"/>
                </mxCell>
                <mxCell id="IDtyQV8B6ksGOKyQBEoF-41" value="" style="endArrow=classic;html=1;exitX=1;exitY=0.5;exitDx=0;exitDy=0;entryX=0;entryY=0.5;entryDx=0;entryDy=0;" edge="1" parent="1" source="IDtyQV8B6ksGOKyQBEoF-33" target="IDtyQV8B6ksGOKyQBEoF-35">
                    <mxGeometry relative="1" as="geometry">
                        <mxPoint x="977" y="195" as="sourcePoint"/>
                        <mxPoint x="1077" y="195" as="targetPoint"/>
                    </mxGeometry>
                </mxCell>
                <mxCell id="IDtyQV8B6ksGOKyQBEoF-42" value="SI" style="edgeLabel;resizable=0;html=1;align=center;verticalAlign=middle;" connectable="0" vertex="1" parent="IDtyQV8B6ksGOKyQBEoF-41">
                    <mxGeometry relative="1" as="geometry"/>
                </mxCell>
                <mxCell id="IDtyQV8B6ksGOKyQBEoF-58" style="edgeStyle=none;html=1;entryX=0;entryY=0.5;entryDx=0;entryDy=0;exitX=1;exitY=0.5;exitDx=0;exitDy=0;" edge="1" parent="1" source="IDtyQV8B6ksGOKyQBEoF-43" target="IDtyQV8B6ksGOKyQBEoF-53">
                    <mxGeometry relative="1" as="geometry"/>
                </mxCell>
                <mxCell id="IDtyQV8B6ksGOKyQBEoF-43" value="cada objeto se envia a un subproceso independiente" style="rounded=1;whiteSpace=wrap;html=1;" vertex="1" parent="1">
                    <mxGeometry x="990" y="325" width="180" height="50" as="geometry"/>
                </mxCell>
                <mxCell id="IDtyQV8B6ksGOKyQBEoF-45" value="El ean existe en VTEX" style="rhombus;whiteSpace=wrap;html=1;" vertex="1" parent="1">
                    <mxGeometry x="847" y="422" width="80" height="80" as="geometry"/>
                </mxCell>
                <mxCell id="IDtyQV8B6ksGOKyQBEoF-46" value="Se descarta el ean y se regista el log" style="rounded=1;whiteSpace=wrap;html=1;" vertex="1" parent="1">
                    <mxGeometry x="997" y="432" width="120" height="60" as="geometry"/>
                </mxCell>
                <mxCell id="IDtyQV8B6ksGOKyQBEoF-47" value="" style="endArrow=classic;html=1;exitX=1;exitY=0.5;exitDx=0;exitDy=0;entryX=0;entryY=0.5;entryDx=0;entryDy=0;" edge="1" parent="1" source="IDtyQV8B6ksGOKyQBEoF-45" target="IDtyQV8B6ksGOKyQBEoF-46">
                    <mxGeometry relative="1" as="geometry">
                        <mxPoint x="737" y="462" as="sourcePoint"/>
                        <mxPoint x="837" y="462" as="targetPoint"/>
                    </mxGeometry>
                </mxCell>
                <mxCell id="IDtyQV8B6ksGOKyQBEoF-48" value="NO" style="edgeLabel;resizable=0;html=1;align=center;verticalAlign=middle;" connectable="0" vertex="1" parent="IDtyQV8B6ksGOKyQBEoF-47">
                    <mxGeometry relative="1" as="geometry"/>
                </mxCell>
                <mxCell id="IDtyQV8B6ksGOKyQBEoF-65" style="edgeStyle=none;html=1;entryX=1;entryY=0.5;entryDx=0;entryDy=0;exitX=0;exitY=0.5;exitDx=0;exitDy=0;" edge="1" parent="1" source="IDtyQV8B6ksGOKyQBEoF-49" target="IDtyQV8B6ksGOKyQBEoF-50">
                    <mxGeometry relative="1" as="geometry"/>
                </mxCell>
                <mxCell id="IDtyQV8B6ksGOKyQBEoF-49" value="Actualiza maestra del gestor con los nuevo eanes y su corerspondiente sku" style="rounded=1;whiteSpace=wrap;html=1;" vertex="1" parent="1">
                    <mxGeometry x="647" y="422" width="140" height="80" as="geometry"/>
                </mxCell>
                <mxCell id="IDtyQV8B6ksGOKyQBEoF-61" style="edgeStyle=none;html=1;entryX=0.5;entryY=0;entryDx=0;entryDy=0;" edge="1" parent="1" source="IDtyQV8B6ksGOKyQBEoF-50" target="IDtyQV8B6ksGOKyQBEoF-60">
                    <mxGeometry relative="1" as="geometry"/>
                </mxCell>
                <mxCell id="IDtyQV8B6ksGOKyQBEoF-62" style="edgeStyle=none;html=1;entryX=1;entryY=0.5;entryDx=0;entryDy=0;exitX=0;exitY=0.5;exitDx=0;exitDy=0;" edge="1" parent="1" source="IDtyQV8B6ksGOKyQBEoF-50" target="IDtyQV8B6ksGOKyQBEoF-51">
                    <mxGeometry relative="1" as="geometry">
                        <mxPoint x="417" y="535" as="sourcePoint"/>
                    </mxGeometry>
                </mxCell>
                <mxCell id="IDtyQV8B6ksGOKyQBEoF-50" value="Se reporta stok a vtex" style="rounded=1;whiteSpace=wrap;html=1;" vertex="1" parent="1">
                    <mxGeometry x="468" y="442" width="140" height="40" as="geometry"/>
                </mxCell>
                <mxCell id="IDtyQV8B6ksGOKyQBEoF-51" value="Avisar a fenix el reporte de stock (cambiar de estado el ean)" style="rounded=1;whiteSpace=wrap;html=1;fillColor=#FF0000;" vertex="1" parent="1">
                    <mxGeometry x="270" y="432" width="180" height="60" as="geometry"/>
                </mxCell>
                <mxCell id="IDtyQV8B6ksGOKyQBEoF-68" style="edgeStyle=none;html=1;entryX=0.5;entryY=0;entryDx=0;entryDy=0;" edge="1" parent="1" source="IDtyQV8B6ksGOKyQBEoF-53" target="IDtyQV8B6ksGOKyQBEoF-67">
                    <mxGeometry relative="1" as="geometry"/>
                </mxCell>
                <mxCell id="IDtyQV8B6ksGOKyQBEoF-53" value="Cada subproceso reporta stock a vtex" style="whiteSpace=wrap;html=1;" vertex="1" parent="1">
                    <mxGeometry x="1200" y="330" width="120" height="40" as="geometry"/>
                </mxCell>
                <mxCell id="IDtyQV8B6ksGOKyQBEoF-54" value="Reporte exitoso -&amp;gt; registra log" style="whiteSpace=wrap;html=1;" vertex="1" parent="1">
                    <mxGeometry x="1370" y="300" width="180" height="30" as="geometry"/>
                </mxCell>
                <mxCell id="IDtyQV8B6ksGOKyQBEoF-55" value="" style="edgeStyle=elbowEdgeStyle;elbow=vertical;html=1;rounded=1;curved=0;sourcePerimeterSpacing=0;targetPerimeterSpacing=0;startSize=6;endSize=6;" edge="1" source="IDtyQV8B6ksGOKyQBEoF-53" target="IDtyQV8B6ksGOKyQBEoF-54" parent="1">
                    <mxGeometry relative="1" as="geometry"/>
                </mxCell>
                <mxCell id="IDtyQV8B6ksGOKyQBEoF-56" value="Reporte fallido -&amp;gt; registra log" style="whiteSpace=wrap;html=1;" vertex="1" parent="1">
                    <mxGeometry x="1370" y="370" width="180" height="30" as="geometry"/>
                </mxCell>
                <mxCell id="IDtyQV8B6ksGOKyQBEoF-57" value="" style="edgeStyle=elbowEdgeStyle;elbow=vertical;html=1;rounded=1;curved=0;sourcePerimeterSpacing=0;targetPerimeterSpacing=0;startSize=6;endSize=6;" edge="1" source="IDtyQV8B6ksGOKyQBEoF-53" target="IDtyQV8B6ksGOKyQBEoF-56" parent="1">
                    <mxGeometry relative="1" as="geometry"/>
                </mxCell>
                <mxCell id="IDtyQV8B6ksGOKyQBEoF-60" value="Registra log" style="rounded=1;whiteSpace=wrap;html=1;" vertex="1" parent="1">
                    <mxGeometry x="478" y="512" width="120" height="30" as="geometry"/>
                </mxCell>
                <mxCell id="IDtyQV8B6ksGOKyQBEoF-63" value="" style="endArrow=classic;html=1;entryX=1;entryY=0.5;entryDx=0;entryDy=0;exitX=0;exitY=0.5;exitDx=0;exitDy=0;" edge="1" parent="1" source="IDtyQV8B6ksGOKyQBEoF-45" target="IDtyQV8B6ksGOKyQBEoF-49">
                    <mxGeometry relative="1" as="geometry">
                        <mxPoint x="707" y="402" as="sourcePoint"/>
                        <mxPoint x="807" y="402" as="targetPoint"/>
                    </mxGeometry>
                </mxCell>
                <mxCell id="IDtyQV8B6ksGOKyQBEoF-64" value="SI" style="edgeLabel;resizable=0;html=1;align=center;verticalAlign=middle;" connectable="0" vertex="1" parent="IDtyQV8B6ksGOKyQBEoF-63">
                    <mxGeometry relative="1" as="geometry"/>
                </mxCell>
                <mxCell id="IDtyQV8B6ksGOKyQBEoF-67" value="Avisar a fenix el reporte de stock (cambiar de estado el ean)" style="rounded=1;whiteSpace=wrap;html=1;fillColor=#FF0000;" vertex="1" parent="1">
                    <mxGeometry x="1170" y="430" width="180" height="60" as="geometry"/>
                </mxCell>
            </root>
        </mxGraphModel>
    </diagram>
    <diagram id="cupeQ4AYKu-JpHyhWev2" name="Sincronizacion de inventario con fallo">
        <mxGraphModel dx="995" dy="477" grid="1" gridSize="10" guides="1" tooltips="1" connect="1" arrows="1" fold="1" page="1" pageScale="1" pageWidth="827" pageHeight="1169" math="0" shadow="0">
            <root>
                <mxCell id="0"/>
                <mxCell id="1" parent="0"/>
            </root>
        </mxGraphModel>
    </diagram>
</mxfile>